<?xml version="1.0" encoding="UTF-8" standalone="no"?><!DOCTYPE svg PUBLIC "-//W3C//DTD SVG 1.1//EN" "http://www.w3.org/Graphics/SVG/1.1/DTD/svg11.dtd"><svg width="100%" height="100%" viewBox="0 0 512 512" version="1.1" xmlns="http://www.w3.org/2000/svg" xmlns:xlink="http://www.w3.org/1999/xlink" xml:space="preserve" xmlns:serif="http://www.serif.com/" style="fill-rule:evenodd;clip-rule:evenodd;stroke-linejoin:round;stroke-miterlimit:2;"><path d="M242.08,246.116c0,-0 -1.083,47.568 -1.278,56.162c-0.017,0.727 -0.611,1.307 -1.338,1.307c-0,0.001 -0.001,0.001 -0.001,0.001c-31.735,-0 -57.5,25.765 -57.5,57.5c-0,31.735 25.765,57.5 57.5,57.5c31.756,-0 57.5,-25.744 57.5,-57.5l57.5,-0c-0,63.512 -51.488,115 -115,115c-63.471,-0 -115,-51.53 -115,-115c-0,-63.471 51.529,-115 115,-115c0.872,-0 1.745,0.01 2.617,0.03Z" style="fill:#7b5cff;"/><path d="M354.463,38.039l-0,321.74c-0,4.481 -1.78,8.778 -4.949,11.947c-3.168,3.168 -7.466,4.948 -11.946,4.948c-16.933,-0 -40.506,-0 -40.506,-0l-0,-338.635l57.401,-0Z" style="fill:#7b5cff;"/><path d="M354.463,144.049l-158.623,0l-0,-57.215l158.623,-0l-0,57.215Z" style="fill:#7b5cff;"/></svg>