<?xml version="1.0" encoding="UTF-8" standalone="no"?>
<!DOCTYPE svg PUBLIC "-//W3C//DTD SVG 1.1//EN" "http://www.w3.org/Graphics/SVG/1.1/DTD/svg11.dtd">
<svg width="100%" height="100%" viewBox="0 0 512 512" version="1.1" xmlns="http://www.w3.org/2000/svg" xmlns:xlink="http://www.w3.org/1999/xlink" xml:space="preserve" xmlns:serif="http://www.serif.com/" style="fill-rule:evenodd;clip-rule:evenodd;stroke-linejoin:round;stroke-miterlimit:2;">
    <g>
        <g transform="matrix(1,0,0,1.09671,1.37141,-15.5431)">
            <path d="M247.148,324.498L247.148,32.575L322.213,32.575L322.213,357.047C322.213,358.784 321.966,360.468 321.503,362.072C319.067,370.515 310.638,376.741 300.614,376.741L262.619,376.741C264.3,371.951 265.206,366.853 265.206,361.567C265.206,346.925 258.252,333.729 247.148,324.498Z" style="fill:rgb(15,60,76);"/>
        </g>
        <g transform="matrix(-0.00230743,0.999997,-0.734576,-0.00169499,438.818,-147.409)">
            <rect x="247.148" y="32.575" width="75.065" height="344.166" style="fill:rgb(15,60,76);"/>
        </g>
        <g transform="matrix(0.807107,0,0,0.794416,127.402,222.907)">
            <path d="M102.683,59.485C179.68,59.485 242.191,121.997 242.191,198.993C242.191,275.989 179.68,338.501 102.683,338.501C25.687,338.501 -36.824,275.989 -36.824,198.993C-36.824,121.997 25.687,59.485 102.683,59.485ZM102.683,129.239C141.181,129.239 172.437,160.495 172.437,198.993C172.437,237.491 141.181,268.747 102.683,268.747C64.185,268.747 32.929,237.491 32.929,198.993C32.929,160.495 64.185,129.239 102.683,129.239Z" style="fill:rgb(15,60,76);"/>
        </g>
    </g>
    <g transform="matrix(1,0,0,1,-28.9389,14.1632)">
        <g transform="matrix(1,0,0,1.09671,1.37141,-15.5431)">
            <path d="M247.148,324.498L247.148,32.575L322.213,32.575L322.213,357.047C322.213,358.784 321.966,360.468 321.503,362.072C319.067,370.515 310.638,376.741 300.614,376.741L262.619,376.741C264.3,371.951 265.206,366.853 265.206,361.567C265.206,346.925 258.252,333.729 247.148,324.498Z" style="fill:rgb(181,201,208);"/>
        </g>
        <g transform="matrix(-0.00230743,0.999997,-0.734576,-0.00169499,438.818,-147.409)">
            <rect x="247.148" y="32.575" width="75.065" height="344.166" style="fill:rgb(181,201,208);"/>
        </g>
        <g transform="matrix(0.807107,0,0,0.794416,127.402,222.907)">
            <path d="M102.683,59.485C179.68,59.485 242.191,121.997 242.191,198.993C242.191,275.989 179.68,338.501 102.683,338.501C25.687,338.501 -36.824,275.989 -36.824,198.993C-36.824,121.997 25.687,59.485 102.683,59.485ZM102.683,129.239C141.181,129.239 172.437,160.495 172.437,198.993C172.437,237.491 141.181,268.747 102.683,268.747C64.185,268.747 32.929,237.491 32.929,198.993C32.929,160.495 64.185,129.239 102.683,129.239Z" style="fill:rgb(181,201,208);"/>
        </g>
    </g>
</svg>
