<?xml version="1.0" encoding="UTF-8" standalone="no"?><!DOCTYPE svg PUBLIC "-//W3C//DTD SVG 1.1//EN" "http://www.w3.org/Graphics/SVG/1.1/DTD/svg11.dtd"><svg width="100%" height="100%" viewBox="0 0 512 512" version="1.1" xmlns="http://www.w3.org/2000/svg" xmlns:xlink="http://www.w3.org/1999/xlink" xml:space="preserve" xmlns:serif="http://www.serif.com/" style="fill-rule:evenodd;clip-rule:evenodd;stroke-linejoin:round;stroke-miterlimit:2;"><path d="M242.08,256.03c0,-0 -1.083,47.569 -1.278,56.162c-0.017,0.727 -0.611,1.308 -1.338,1.308c-0,0 -0.001,0 -0.001,0c-31.735,0 -57.5,25.765 -57.5,57.5c-0,31.735 25.765,57.5 57.5,57.5c31.756,0 57.5,-25.744 57.5,-57.5l57.5,0c-0,63.513 -51.488,115 -115,115c-63.471,0 -115,-51.53 -115,-115c-0,-63.47 51.529,-115 115,-115c0.872,0 1.745,0.01 2.617,0.03Z" style="fill:#7b5cff;"/><path d="M354.463,26l-0,346.595c-0,2.253 -1.826,4.079 -4.079,4.079c-13.11,-0 -53.322,-0 -53.322,-0l-0,-350.674l57.401,0Z" style="fill:#7b5cff;"/><path d="M354.463,144.049l-158.623,0l-0,-57.215l158.623,-0l-0,57.215Z" style="fill:#7b5cff;"/></svg>